{
    "asset" : {
        "generator" : "Khronos glTF Blender I/O v3.3.32",
        "version" : "2.0"
    },
    "scene" : 0,
    "scenes" : [
        {
            "name" : "Scene",
            "nodes" : [
                0,
                1,
                2,
                3,
                4,
                5,
                6,
                7,
                8,
                9,
                10
            ]
        }
    ],
    "nodes" : [
        {
            "mesh" : 0,
            "name" : "FOOTING FOOTING_SF6.9 [27750286]",
            "scale" : [
                0.30480000376701355,
                0.30480000376701355,
                0.30480000376701355
            ],
            "translation" : [
                379.91607666015625,
                4.830896377563477,
                54.45016860961914
            ]
        },
        {
            "mesh" : 1,
            "name" : "FOOTING FOORTING_SF6.0 [27750662]",
            "scale" : [
                0.30480000376701355,
                0.30480000376701355,
                0.30480000376701355
            ],
            "translation" : [
                379.91607666015625,
                4.830896377563477,
                54.45016860961914
            ]
        },
        {
            "mesh" : 2,
            "name" : "FOOTING FOORTING_SF6.0 [27750676]",
            "scale" : [
                0.30480000376701355,
                0.30480000376701355,
                0.30480000376701355
            ],
            "translation" : [
                379.91607666015625,
                4.830896377563477,
                54.45016860961914
            ]
        },
        {
            "mesh" : 3,
            "name" : "FOOTING FOORTING_SF6.0 [27750688]",
            "scale" : [
                0.30480000376701355,
                0.30480000376701355,
                0.30480000376701355
            ],
            "translation" : [
                379.91607666015625,
                4.830896377563477,
                54.45016860961914
            ]
        },
        {
            "mesh" : 4,
            "name" : "FOOTING FOOTING_SF7.0 [27750660]",
            "scale" : [
                0.30480000376701355,
                0.30480000376701355,
                0.30480000376701355
            ],
            "translation" : [
                379.91607666015625,
                4.830896377563477,
                54.45016860961914
            ]
        },
        {
            "mesh" : 5,
            "name" : "FOOTING FOOTING_SF7.0 [27750670]",
            "scale" : [
                0.30480000376701355,
                0.30480000376701355,
                0.30480000376701355
            ],
            "translation" : [
                379.91607666015625,
                4.830896377563477,
                54.45016860961914
            ]
        },
        {
            "mesh" : 6,
            "name" : "FOOTING FOOTING_SF7.0 [27750684]",
            "scale" : [
                0.30480000376701355,
                0.30480000376701355,
                0.30480000376701355
            ],
            "translation" : [
                379.91607666015625,
                4.830896377563477,
                54.45016860961914
            ]
        },
        {
            "mesh" : 7,
            "name" : "FOOTING FOOTING_CF3 [27750872]",
            "scale" : [
                0.30480000376701355,
                0.30480000376701355,
                0.30480000376701355
            ],
            "translation" : [
                379.91607666015625,
                4.830896377563477,
                54.45016860961914
            ]
        },
        {
            "mesh" : 8,
            "name" : "FOOTING FOOTING_SF7.0 [28054339]",
            "scale" : [
                0.30480000376701355,
                0.30480000376701355,
                0.30480000376701355
            ],
            "translation" : [
                379.91607666015625,
                4.830896377563477,
                54.45016860961914
            ]
        },
        {
            "mesh" : 9,
            "name" : "FOOTING FOOTING_SF7.0 [28054341]",
            "scale" : [
                0.30480000376701355,
                0.30480000376701355,
                0.30480000376701355
            ],
            "translation" : [
                379.91607666015625,
                4.830896377563477,
                54.45016860961914
            ]
        },
        {
            "mesh" : 10,
            "name" : "FOOTING FOOTING_SF7.0 [28054343]",
            "scale" : [
                0.30480000376701355,
                0.30480000376701355,
                0.30480000376701355
            ],
            "translation" : [
                379.91607666015625,
                4.830896377563477,
                54.45016860961914
            ]
        }
    ],
    "meshes" : [
        {
            "name" : "FOOTING FOOTING_SF6.9 [27750286] Geometry",
            "primitives" : [
                {
                    "attributes" : {
                        "POSITION" : 0,
                        "NORMAL" : 1,
                        "TEXCOORD_0" : 2
                    },
                    "indices" : 3
                }
            ]
        },
        {
            "name" : "FOOTING FOORTING_SF6.0 [27750662] Geometry",
            "primitives" : [
                {
                    "attributes" : {
                        "POSITION" : 4,
                        "NORMAL" : 5,
                        "TEXCOORD_0" : 6
                    },
                    "indices" : 7
                }
            ]
        },
        {
            "name" : "FOOTING FOORTING_SF6.0 [27750676] Geometry",
            "primitives" : [
                {
                    "attributes" : {
                        "POSITION" : 8,
                        "NORMAL" : 9,
                        "TEXCOORD_0" : 10
                    },
                    "indices" : 7
                }
            ]
        },
        {
            "name" : "FOOTING FOORTING_SF6.0 [27750688] Geometry",
            "primitives" : [
                {
                    "attributes" : {
                        "POSITION" : 11,
                        "NORMAL" : 12,
                        "TEXCOORD_0" : 13
                    },
                    "indices" : 7
                }
            ]
        },
        {
            "name" : "FOOTING FOOTING_SF7.0 [27750660] Geometry",
            "primitives" : [
                {
                    "attributes" : {
                        "POSITION" : 14,
                        "NORMAL" : 15,
                        "TEXCOORD_0" : 16
                    },
                    "indices" : 17
                }
            ]
        },
        {
            "name" : "FOOTING FOOTING_SF7.0 [27750670] Geometry",
            "primitives" : [
                {
                    "attributes" : {
                        "POSITION" : 18,
                        "NORMAL" : 19,
                        "TEXCOORD_0" : 20
                    },
                    "indices" : 21
                }
            ]
        },
        {
            "name" : "FOOTING FOOTING_SF7.0 [27750684] Geometry",
            "primitives" : [
                {
                    "attributes" : {
                        "POSITION" : 22,
                        "NORMAL" : 23,
                        "TEXCOORD_0" : 24
                    },
                    "indices" : 25
                }
            ]
        },
        {
            "name" : "FOOTING FOOTING_CF3 [27750872] Geometry",
            "primitives" : [
                {
                    "attributes" : {
                        "POSITION" : 26,
                        "NORMAL" : 27,
                        "TEXCOORD_0" : 28
                    },
                    "indices" : 29
                }
            ]
        },
        {
            "name" : "FOOTING FOOTING_SF7.0 [28054339] Geometry",
            "primitives" : [
                {
                    "attributes" : {
                        "POSITION" : 30,
                        "NORMAL" : 31,
                        "TEXCOORD_0" : 32
                    },
                    "indices" : 33
                }
            ]
        },
        {
            "name" : "FOOTING FOOTING_SF7.0 [28054341] Geometry",
            "primitives" : [
                {
                    "attributes" : {
                        "POSITION" : 34,
                        "NORMAL" : 35,
                        "TEXCOORD_0" : 36
                    },
                    "indices" : 37
                }
            ]
        },
        {
            "name" : "FOOTING FOOTING_SF7.0 [28054343] Geometry",
            "primitives" : [
                {
                    "attributes" : {
                        "POSITION" : 38,
                        "NORMAL" : 39,
                        "TEXCOORD_0" : 40
                    },
                    "indices" : 41
                }
            ]
        }
    ],
    "accessors" : [
        {
            "bufferView" : 0,
            "componentType" : 5126,
            "count" : 78,
            "max" : [
                -1190.3614501953125,
                -2.3333332538604736,
                -207.0154266357422
            ],
            "min" : [
                -1219.3614501953125,
                -15.333333015441895,
                -233.0154266357422
            ],
            "type" : "VEC3"
        },
        {
            "bufferView" : 1,
            "componentType" : 5126,
            "count" : 78,
            "type" : "VEC3"
        },
        {
            "bufferView" : 2,
            "componentType" : 5126,
            "count" : 78,
            "type" : "VEC2"
        },
        {
            "bufferView" : 3,
            "componentType" : 5123,
            "count" : 108,
            "type" : "SCALAR"
        },
        {
            "bufferView" : 4,
            "componentType" : 5126,
            "count" : 78,
            "max" : [
                -1275.1114501953125,
                -2.3333332538604736,
                -207.0154266357422
            ],
            "min" : [
                -1301.1114501953125,
                -14.833333015441895,
                -233.0154266357422
            ],
            "type" : "VEC3"
        },
        {
            "bufferView" : 5,
            "componentType" : 5126,
            "count" : 78,
            "type" : "VEC3"
        },
        {
            "bufferView" : 6,
            "componentType" : 5126,
            "count" : 78,
            "type" : "VEC2"
        },
        {
            "bufferView" : 7,
            "componentType" : 5123,
            "count" : 108,
            "type" : "SCALAR"
        },
        {
            "bufferView" : 8,
            "componentType" : 5126,
            "count" : 78,
            "max" : [
                -1247.6947021484375,
                -2.3333332538604736,
                -207.0154266357422
            ],
            "min" : [
                -1273.6947021484375,
                -14.833333015441895,
                -233.0154266357422
            ],
            "type" : "VEC3"
        },
        {
            "bufferView" : 9,
            "componentType" : 5126,
            "count" : 78,
            "type" : "VEC3"
        },
        {
            "bufferView" : 10,
            "componentType" : 5126,
            "count" : 78,
            "type" : "VEC2"
        },
        {
            "bufferView" : 11,
            "componentType" : 5126,
            "count" : 78,
            "max" : [
                -1221.1947021484375,
                -2.3333332538604736,
                -207.0154266357422
            ],
            "min" : [
                -1247.1947021484375,
                -14.833333015441895,
                -233.0154266357422
            ],
            "type" : "VEC3"
        },
        {
            "bufferView" : 12,
            "componentType" : 5126,
            "count" : 78,
            "type" : "VEC3"
        },
        {
            "bufferView" : 13,
            "componentType" : 5126,
            "count" : 78,
            "type" : "VEC2"
        },
        {
            "bufferView" : 14,
            "componentType" : 5126,
            "count" : 76,
            "max" : [
                -1274.6114501953125,
                -2.3333332538604736,
                -121.97199249267578
            ],
            "min" : [
                -1301.6114501953125,
                -14.833333015441895,
                -148.97198486328125
            ],
            "type" : "VEC3"
        },
        {
            "bufferView" : 15,
            "componentType" : 5126,
            "count" : 76,
            "type" : "VEC3"
        },
        {
            "bufferView" : 16,
            "componentType" : 5126,
            "count" : 76,
            "type" : "VEC2"
        },
        {
            "bufferView" : 17,
            "componentType" : 5123,
            "count" : 102,
            "type" : "SCALAR"
        },
        {
            "bufferView" : 18,
            "componentType" : 5126,
            "count" : 80,
            "max" : [
                -1247.1947021484375,
                -2.3333332538604736,
                -121.9737548828125
            ],
            "min" : [
                -1274.1947021484375,
                -14.833333015441895,
                -148.9737548828125
            ],
            "type" : "VEC3"
        },
        {
            "bufferView" : 19,
            "componentType" : 5126,
            "count" : 80,
            "type" : "VEC3"
        },
        {
            "bufferView" : 20,
            "componentType" : 5126,
            "count" : 80,
            "type" : "VEC2"
        },
        {
            "bufferView" : 21,
            "componentType" : 5123,
            "count" : 114,
            "type" : "SCALAR"
        },
        {
            "bufferView" : 22,
            "componentType" : 5126,
            "count" : 82,
            "max" : [
                -1220.6947021484375,
                -2.3333332538604736,
                -121.9737548828125
            ],
            "min" : [
                -1247.4447021484375,
                -14.833333015441895,
                -148.9737548828125
            ],
            "type" : "VEC3"
        },
        {
            "bufferView" : 23,
            "componentType" : 5126,
            "count" : 82,
            "type" : "VEC3"
        },
        {
            "bufferView" : 24,
            "componentType" : 5126,
            "count" : 82,
            "type" : "VEC2"
        },
        {
            "bufferView" : 25,
            "componentType" : 5123,
            "count" : 114,
            "type" : "SCALAR"
        },
        {
            "bufferView" : 26,
            "componentType" : 5126,
            "count" : 82,
            "max" : [
                -1186.8614501953125,
                -1.8333333730697632,
                -119.9737548828125
            ],
            "min" : [
                -1220.8614501953125,
                -15.833333015441895,
                -179.9737548828125
            ],
            "type" : "VEC3"
        },
        {
            "bufferView" : 27,
            "componentType" : 5126,
            "count" : 82,
            "type" : "VEC3"
        },
        {
            "bufferView" : 28,
            "componentType" : 5126,
            "count" : 82,
            "type" : "VEC2"
        },
        {
            "bufferView" : 29,
            "componentType" : 5123,
            "count" : 108,
            "type" : "SCALAR"
        },
        {
            "bufferView" : 30,
            "componentType" : 5126,
            "count" : 76,
            "max" : [
                -1274.6114501953125,
                -2.3333332538604736,
                -151.97198486328125
            ],
            "min" : [
                -1301.6114501953125,
                -14.833333015441895,
                -178.97198486328125
            ],
            "type" : "VEC3"
        },
        {
            "bufferView" : 31,
            "componentType" : 5126,
            "count" : 76,
            "type" : "VEC3"
        },
        {
            "bufferView" : 32,
            "componentType" : 5126,
            "count" : 76,
            "type" : "VEC2"
        },
        {
            "bufferView" : 33,
            "componentType" : 5123,
            "count" : 102,
            "type" : "SCALAR"
        },
        {
            "bufferView" : 34,
            "componentType" : 5126,
            "count" : 78,
            "max" : [
                -1247.1947021484375,
                -2.3333332538604736,
                -151.9737548828125
            ],
            "min" : [
                -1274.1947021484375,
                -14.833333015441895,
                -178.9737548828125
            ],
            "type" : "VEC3"
        },
        {
            "bufferView" : 35,
            "componentType" : 5126,
            "count" : 78,
            "type" : "VEC3"
        },
        {
            "bufferView" : 36,
            "componentType" : 5126,
            "count" : 78,
            "type" : "VEC2"
        },
        {
            "bufferView" : 37,
            "componentType" : 5123,
            "count" : 114,
            "type" : "SCALAR"
        },
        {
            "bufferView" : 38,
            "componentType" : 5126,
            "count" : 82,
            "max" : [
                -1220.6947021484375,
                -2.3333332538604736,
                -151.9737548828125
            ],
            "min" : [
                -1247.4447021484375,
                -14.833333015441895,
                -178.9737548828125
            ],
            "type" : "VEC3"
        },
        {
            "bufferView" : 39,
            "componentType" : 5126,
            "count" : 82,
            "type" : "VEC3"
        },
        {
            "bufferView" : 40,
            "componentType" : 5126,
            "count" : 82,
            "type" : "VEC2"
        },
        {
            "bufferView" : 41,
            "componentType" : 5123,
            "count" : 114,
            "type" : "SCALAR"
        }
    ],
    "bufferViews" : [
        {
            "buffer" : 0,
            "byteLength" : 936,
            "byteOffset" : 0,
            "target" : 34962
        },
        {
            "buffer" : 0,
            "byteLength" : 936,
            "byteOffset" : 936,
            "target" : 34962
        },
        {
            "buffer" : 0,
            "byteLength" : 624,
            "byteOffset" : 1872,
            "target" : 34962
        },
        {
            "buffer" : 0,
            "byteLength" : 216,
            "byteOffset" : 2496,
            "target" : 34963
        },
        {
            "buffer" : 0,
            "byteLength" : 936,
            "byteOffset" : 2712,
            "target" : 34962
        },
        {
            "buffer" : 0,
            "byteLength" : 936,
            "byteOffset" : 3648,
            "target" : 34962
        },
        {
            "buffer" : 0,
            "byteLength" : 624,
            "byteOffset" : 4584,
            "target" : 34962
        },
        {
            "buffer" : 0,
            "byteLength" : 216,
            "byteOffset" : 5208,
            "target" : 34963
        },
        {
            "buffer" : 0,
            "byteLength" : 936,
            "byteOffset" : 5424,
            "target" : 34962
        },
        {
            "buffer" : 0,
            "byteLength" : 936,
            "byteOffset" : 6360,
            "target" : 34962
        },
        {
            "buffer" : 0,
            "byteLength" : 624,
            "byteOffset" : 7296,
            "target" : 34962
        },
        {
            "buffer" : 0,
            "byteLength" : 936,
            "byteOffset" : 7920,
            "target" : 34962
        },
        {
            "buffer" : 0,
            "byteLength" : 936,
            "byteOffset" : 8856,
            "target" : 34962
        },
        {
            "buffer" : 0,
            "byteLength" : 624,
            "byteOffset" : 9792,
            "target" : 34962
        },
        {
            "buffer" : 0,
            "byteLength" : 912,
            "byteOffset" : 10416,
            "target" : 34962
        },
        {
            "buffer" : 0,
            "byteLength" : 912,
            "byteOffset" : 11328,
            "target" : 34962
        },
        {
            "buffer" : 0,
            "byteLength" : 608,
            "byteOffset" : 12240,
            "target" : 34962
        },
        {
            "buffer" : 0,
            "byteLength" : 204,
            "byteOffset" : 12848,
            "target" : 34963
        },
        {
            "buffer" : 0,
            "byteLength" : 960,
            "byteOffset" : 13052,
            "target" : 34962
        },
        {
            "buffer" : 0,
            "byteLength" : 960,
            "byteOffset" : 14012,
            "target" : 34962
        },
        {
            "buffer" : 0,
            "byteLength" : 640,
            "byteOffset" : 14972,
            "target" : 34962
        },
        {
            "buffer" : 0,
            "byteLength" : 228,
            "byteOffset" : 15612,
            "target" : 34963
        },
        {
            "buffer" : 0,
            "byteLength" : 984,
            "byteOffset" : 15840,
            "target" : 34962
        },
        {
            "buffer" : 0,
            "byteLength" : 984,
            "byteOffset" : 16824,
            "target" : 34962
        },
        {
            "buffer" : 0,
            "byteLength" : 656,
            "byteOffset" : 17808,
            "target" : 34962
        },
        {
            "buffer" : 0,
            "byteLength" : 228,
            "byteOffset" : 18464,
            "target" : 34963
        },
        {
            "buffer" : 0,
            "byteLength" : 984,
            "byteOffset" : 18692,
            "target" : 34962
        },
        {
            "buffer" : 0,
            "byteLength" : 984,
            "byteOffset" : 19676,
            "target" : 34962
        },
        {
            "buffer" : 0,
            "byteLength" : 656,
            "byteOffset" : 20660,
            "target" : 34962
        },
        {
            "buffer" : 0,
            "byteLength" : 216,
            "byteOffset" : 21316,
            "target" : 34963
        },
        {
            "buffer" : 0,
            "byteLength" : 912,
            "byteOffset" : 21532,
            "target" : 34962
        },
        {
            "buffer" : 0,
            "byteLength" : 912,
            "byteOffset" : 22444,
            "target" : 34962
        },
        {
            "buffer" : 0,
            "byteLength" : 608,
            "byteOffset" : 23356,
            "target" : 34962
        },
        {
            "buffer" : 0,
            "byteLength" : 204,
            "byteOffset" : 23964,
            "target" : 34963
        },
        {
            "buffer" : 0,
            "byteLength" : 936,
            "byteOffset" : 24168,
            "target" : 34962
        },
        {
            "buffer" : 0,
            "byteLength" : 936,
            "byteOffset" : 25104,
            "target" : 34962
        },
        {
            "buffer" : 0,
            "byteLength" : 624,
            "byteOffset" : 26040,
            "target" : 34962
        },
        {
            "buffer" : 0,
            "byteLength" : 228,
            "byteOffset" : 26664,
            "target" : 34963
        },
        {
            "buffer" : 0,
            "byteLength" : 984,
            "byteOffset" : 26892,
            "target" : 34962
        },
        {
            "buffer" : 0,
            "byteLength" : 984,
            "byteOffset" : 27876,
            "target" : 34962
        },
        {
            "buffer" : 0,
            "byteLength" : 656,
            "byteOffset" : 28860,
            "target" : 34962
        },
        {
            "buffer" : 0,
            "byteLength" : 228,
            "byteOffset" : 29516,
            "target" : 34963
        }
    ],
    "buffers" : [
        {
            "byteLength" : 29744,
            "uri" : "data:application/octet-stream;base64,"
        }
    ]
}
