<svg viewBox="0 0 13 10" fill="none" xmlns="http://www.w3.org/2000/svg">
<path d="M1.59228 1.23678C1.26517 0.881071 0.734829 0.881071 0.407723 1.23678C0.0806176 1.5925 0.0806176 2.16922 0.407723 2.52493L1.59228 1.23678ZM5.90772 8.50594L6.5 9.15002L7.68455 7.86187L7.09228 7.21779L5.90772 8.50594ZM0.407723 2.52493L5.90772 8.50594L7.09228 7.21779L1.59228 1.23678L0.407723 2.52493Z" fill="#0F3979"/>
<path d="M12.5923 2.52493C12.9194 2.16922 12.9194 1.5925 12.5923 1.23678C12.2652 0.881071 11.7348 0.881071 11.4077 1.23678L12.5923 2.52493ZM5.90772 7.21779L5.31545 7.86187L6.5 9.15002L7.09228 8.50594L5.90772 7.21779ZM11.4077 1.23678L5.90772 7.21779L7.09228 8.50594L12.5923 2.52493L11.4077 1.23678Z" fill="#0F3979"/>
</svg>
