<svg  viewBox="0 0 100 47" fill="none" xmlns="http://www.w3.org/2000/svg">
<path fill-rule="evenodd" clip-rule="evenodd" d="M23.5418 46.0562C11.6226 43.542 3.99783 31.8392 6.51154 19.9176C9.02524 7.99591 20.7256 0.369496 32.6447 2.88372C34.1913 3.20992 35.6653 3.69113 37.0543 4.30704C34.5161 2.51152 31.5781 1.19307 28.3425 0.510419C15.6485 -2.16711 3.18728 5.95501 0.510312 18.6517C-2.16666 31.3485 5.95376 43.8118 18.6478 46.4898C21.8834 47.1724 25.1032 47.1525 28.1503 46.535C26.6307 46.5374 25.0879 46.3824 23.5414 46.0562H23.5418Z" fill="#0F3979"/>
<path fill-rule="evenodd" clip-rule="evenodd" d="M30.8256 45.0793C29.7129 45.2256 28.5758 45.2811 27.4458 45.2442C24.6623 45.1543 21.9568 44.511 19.4053 43.3327C16.8539 42.1543 14.6096 40.5121 12.7357 38.4513C10.9248 36.4606 9.53329 34.1644 8.59883 31.6265C7.66438 29.0887 7.23465 26.4381 7.32168 23.7481C7.40207 21.2596 7.92462 18.8337 8.87565 16.5242C8.55905 17.8754 8.37713 19.2552 8.33196 20.6491C8.24328 23.3925 8.6813 26.0962 9.6344 28.6842C10.5875 31.2722 12.0068 33.614 13.8537 35.6445C15.7653 37.7463 18.054 39.4216 20.6564 40.6232C23.2584 41.8248 26.0178 42.4805 28.8572 42.5725C30.0096 42.6098 31.1691 42.553 32.3041 42.4042C33.8585 42.1999 35.4017 41.8186 36.8906 41.2702C39.4781 40.3169 41.8194 38.8973 43.8495 37.05C44.8809 36.1116 45.8125 35.0779 46.6355 33.9609C45.495 36.1829 43.9879 38.1537 42.1463 39.8291C40.156 41.6403 37.8603 43.0322 35.323 43.9668C33.8631 44.5044 32.3501 44.8787 30.826 45.0789L30.8256 45.0793Z" fill="#0F3979"/>
<path d="M51.5464 33.9489L54.0411 37.6295L56.6434 33.9489H58.6657L55.1185 38.9641C54.8781 39.2874 54.5383 39.5858 54.0079 39.5858C53.4775 39.5858 53.1543 39.3122 52.9139 38.9641L49.4413 33.9489H51.5464Z" fill="#0F3979"/>
<path d="M62.3413 39.4944H58.6283V36.0377H60.3522V38.0686H62.3413C63.2944 38.0686 63.9823 37.5381 63.9823 36.7423C63.9823 35.9465 63.2695 35.3911 62.3413 35.3911H58.6283L59.7223 33.9487H62.3413C64.2807 33.9487 65.6813 35.0678 65.6813 36.6677C65.6813 38.2676 64.2641 39.4944 62.3413 39.4944Z" fill="#0F3979"/>
<path d="M73.6045 38.0686L72.5022 39.4944H69.7175C67.7947 39.4944 66.3775 38.2759 66.3775 36.6677C66.3775 35.0595 67.7947 33.9487 69.7175 33.9487H73.6045L72.5022 35.3911H69.7175C68.7892 35.3911 68.0931 35.9465 68.0931 36.7423C68.0931 37.5381 68.781 38.0686 69.7175 38.0686H73.6045Z" fill="#0F3979"/>
<path d="M79.12 39.4944H77.4044V33.9487H79.12V39.4944Z" fill="#0F3979"/>
<path d="M85.1204 39.2872L81.7224 36.2367V39.4945H80.1643V34.8938C80.1643 34.156 80.6118 33.8576 81.1008 33.8576C81.308 33.8576 81.5152 33.9073 81.7887 34.156L85.1867 37.2066V33.9487H86.7531V38.5412C86.7531 39.2789 86.3056 39.5857 85.8083 39.5857C85.5928 39.5857 85.3856 39.5359 85.1204 39.2872Z" fill="#0F3979"/>
<path d="M94.8172 38.0686L93.7149 39.4944H90.9302C89.0074 39.4944 87.5902 38.2759 87.5902 36.6677C87.5902 35.0595 89.0074 33.9487 90.9302 33.9487H94.8172L93.7149 35.3911H90.9302C90.002 35.3911 89.3058 35.9465 89.3058 36.7423C89.3058 37.5381 89.9937 38.0686 90.9302 38.0686H94.8172Z" fill="#0F3979"/>
<path d="M96.1681 37.9775C96.6902 37.9775 97.1046 38.2759 97.1046 38.7899C97.1046 39.3038 96.6902 39.5857 96.1681 39.5857C95.646 39.5857 95.2399 39.2955 95.2399 38.7899C95.2399 38.2759 95.6543 37.9775 96.1681 37.9775Z" fill="#0F3979"/>
<path d="M37.5085 18.7121C42.0655 18.7121 44.4027 20.2854 44.2444 23.3107C44.0144 27.6976 40.9881 30.8741 33.5083 30.8741H13.9291L19.3245 25.6708H35.2579C37.0178 25.6708 37.8006 25.1261 37.8623 23.9461C37.905 23.1292 37.2656 22.7358 35.9458 22.7358H24.475C19.6979 22.7358 17.6624 20.7998 17.8161 17.8649C18.0316 13.7504 21.1176 10.6343 28.4718 10.6343H46.7312L41.3014 15.8982H26.7193C24.9594 15.8982 24.1812 16.352 24.1178 17.5623C24.0751 18.3792 24.7174 18.7121 26.0688 18.7121H37.5085Z" fill="#0F3979"/>
<path d="M52.4659 25.6703C57.4627 25.6703 59.3428 24.5811 60.029 21.6768L62.6504 10.6343H69.156L66.5345 21.6768C65.1128 27.8182 59.9871 30.8737 51.2505 30.8737H43.3937L48.8516 25.6703H52.4659Z" fill="#0F3979"/>
<path d="M90.7769 18.7121C95.3339 18.7121 97.6715 20.2854 97.5128 23.3107C97.2828 27.6976 94.2565 30.8741 86.7772 30.8741H67.198L72.5934 25.6708H88.5267C90.2866 25.6708 91.0694 25.1261 91.1312 23.9461C91.1739 23.1292 90.5345 22.7358 89.2146 22.7358H77.7438C72.9667 22.7358 70.9312 20.7998 71.085 17.8649C71.3005 13.7504 74.3864 10.6343 81.7406 10.6343H100L94.5702 15.8982H79.9882C78.2283 15.8982 77.4504 16.352 77.387 17.5623C77.3444 18.3792 77.9867 18.7121 79.338 18.7121H90.7773H90.7769Z" fill="#0F3979"/>
</svg>
